{"title":"Le locataire aka The Tenant (1976) Polanski","uid":7275287,"size":1668826695,"categoryP":"video","categoryS":"movies","magnet":"?xt=urn:btih:b358ba33b53139ae5ac15aebe7b96af24b821be9&amp;dn=Le+locataire+aka+The+Tenant+%281976%29+Polanski&amp;tr=udp%3A%2F%2Ftracker.openbittorrent.com%3A80&amp;tr=udp%3A%2F%2Fopen.demonii.com%3A1337&amp;tr=udp%3A%2F%2Ftracker.coppersurfer.tk%3A6969&amp;tr=udp%3A%2F%2Fexodus.desync.com%3A6969","seeders":13,"leechers":2,"uploader":"brunicolos","files":6,"time":1337260748,"description":" &lt;a href=&quot;http://www.imdb.com/title/tt0074811/&quot; rel=&quot;nofollow&quot; target=&quot;_NEW&quot;&gt;http://www.imdb.com/title/tt0074811/&lt;/a&gt;\n\nDirector Roman Polanski casts himself in the lead of the psychological thriller The Tenant. Trelkovsky (Polanski) rents an apartment in a spooky old residential building, where his neighbors - mostly old recluses - eye him with suspicious contempt. Upon discovering that the apartment's previous tenant, a beautiful young woman, jumped from the window in a suicide attempt, Trelkovsky begins obsessing over the dead woman. Growing increasingly paranoid, Trelkovsky convinces himself that his neighbors plan to kill him. He even comes to the conclusion that Stella (Isabel Adjani), the woman he has fallen in love with, is in on the &quot;plot.&quot; Ultimately, Polanski assumes the identity of the suicide victim - and inherits her self-destructive urges.\n\nSubtitles included: English, Swedish, Danish, Norwegian, Finnish, Icelandic (Vobsub) / English, Portuguese BR, Romanian (.srt)\n\nScreenshots: &lt;a href=&quot;\nhttp://img688.imageshack.us/img688/8140/ten2h.jpg&quot; rel=&quot;nofollow&quot; target=&quot;_NEW&quot;&gt;\nhttp://img688.imageshack.us/img688/8140/ten2h.jpg&lt;/a&gt; &lt;a href=&quot;\nhttp://img690.imageshack.us/img690/1063/ten1w.jpg&quot; rel=&quot;nofollow&quot; target=&quot;_NEW&quot;&gt;\nhttp://img690.imageshack.us/img690/1063/ten1w.jpg&lt;/a&gt; &lt;a href=&quot;\nhttp://img513.imageshack.us/img513/4303/ten5.jpg&quot; rel=&quot;nofollow&quot; target=&quot;_NEW&quot;&gt;\nhttp://img513.imageshack.us/img513/4303/ten5.jpg&lt;/a&gt; &lt;a href=&quot;\nhttp://img703.imageshack.us/img703/2192/ten8.jpg&quot; rel=&quot;nofollow&quot; target=&quot;_NEW&quot;&gt;\nhttp://img703.imageshack.us/img703/2192/ten8.jpg&lt;/a&gt;\n\n\nGeneral\nFormat : AVI\nFormat/Info : Audio Video Interleave\nFile size : 1.55 GiB\nDuration : 2h 0mn\nOverall bit rate : 1 844 Kbps\nWriting application : VirtualDubMod 1.5.10.2 (build 2540/release)\nWriting library : VirtualDubMod build 2540/release\n\nVideo\nID : 0\nFormat : MPEG-4 Visual\nFormat profile : Advanced Simple@L5\nFormat settings, BVOP : 2\nFormat settings, QPel : Yes\nFormat settings, GMC : No warppoints\nFormat settings, Matrix : Default (H.263)\nMuxing mode : Packed bitstream\nCodec ID : XVID\nCodec ID/Hint : XviD\nDuration : 2h 0mn\nBit rate : 1 685 Kbps\nWidth : 704 pixels\nHeight : 384 pixels\nDisplay aspect ratio : 16:9\nFrame rate : 25.000 fps\nColor space : YUV\nChroma subsampling : 4:2:0\nBit depth : 8 bits\nScan type : Progressive\nCompression mode : Lossy\nBits/(Pixel*Frame) : 0.249\nStream size : 1.42 GiB (91%)\nWriting library : XviD 1.1.0 Beta2 (UTC 2005-04-04)\n\nAudio\nID : 1\nFormat : MPEG Audio\nFormat version : Version 1\nFormat profile : Layer 3\nMode : Joint stereo\nCodec ID : 55\nCodec ID/Hint : MP3\nDuration : 2h 0mn\nBit rate mode : Variable\nBit rate : 146 Kbps\nNominal bit rate : 160 Kbps\nChannel(s) : 2 channels\nSampling rate : 48.0 KHz\nCompression mode : Lossy\nStream size : 126 MiB (8%)\nAlignment : Aligned on interleaves\nInterleave, duration : 24 ms (0.60 video frame)\nInterleave, preload duration : 126 ms","torrent":{"xt":"urn:btih:b358ba33b53139ae5ac15aebe7b96af24b821be9","amp;dn":"Le+locataire+aka+The+Tenant+%281976%29+Polanski","amp;tr":["udp%3A%2F%2Ftracker.openbittorrent.com%3A80","udp%3A%2F%2Fopen.demonii.com%3A1337","udp%3A%2F%2Ftracker.coppersurfer.tk%3A6969","udp%3A%2F%2Fexodus.desync.com%3A6969"],"infoHash":"b358ba33b53139ae5ac15aebe7b96af24b821be9","infoHashBuffer":{"type":"Buffer","data":[179,88,186,51,181,49,57,174,90,193,90,235,231,185,106,242,75,130,27,233]},"announce":[],"urlList":[]}}